HIERARCHY
ROOT Hips
{
	OFFSET 0.000000 100.481300 0.000000
	CHANNELS 6 Xposition Yposition Zposition Xrotation Yrotation Zrotation 
	JOINT Spine
	{
		OFFSET -0.279200 12.230698 -2.892100
		CHANNELS 3 Xrotation Yrotation Zrotation
		JOINT Spine1
		{
			OFFSET -0.232667 10.192268 -1.242267
			CHANNELS 3 Xrotation Yrotation Zrotation
			JOINT Spine1_split
			{
				OFFSET -0.232667 10.192268 -1.242267
				CHANNELS 3 Xrotation Yrotation Zrotation
				JOINT Spine2
				{
					OFFSET -0.232667 10.192268 -1.242267
					CHANNELS 3 Xrotation Yrotation Zrotation
					JOINT Neck
					{
						OFFSET -0.418800 17.814194 8.416900
						CHANNELS 3 Xrotation Yrotation Zrotation
						JOINT Head
						{
							OFFSET 0.000000 7.031097 3.806800
							CHANNELS 3 Xrotation Yrotation Zrotation
							JOINT HeadTop_End
							{
								OFFSET 0.000000 24.646606 12.978600
								CHANNELS 3 Xrotation Yrotation Zrotation
								End Site
								{
									OFFSET 0.000000 0.000000 0.000000
								}
							}
						}
					}
					JOINT LeftShoulder
					{
						OFFSET 8.476499 7.247704 -3.868750
						CHANNELS 3 Xrotation Yrotation Zrotation
						JOINT LeftShoulder_split
						{
							OFFSET 8.476499 7.247704 -3.868750
							CHANNELS 3 Xrotation Yrotation Zrotation
							JOINT LeftArm
							{
								OFFSET 9.308998 -2.777710 0.208600
								CHANNELS 3 Xrotation Yrotation Zrotation
								JOINT LeftForeArm
								{
									OFFSET 29.972298 0.000000 0.000000
									CHANNELS 3 Xrotation Yrotation Zrotation
									JOINT LeftHand
									{
										OFFSET 26.026505 0.000000 0.000000
										CHANNELS 3 Xrotation Yrotation Zrotation
										JOINT LeftHandThumb1
										{
											OFFSET 12.240501 -7.147949 9.207150
											CHANNELS 3 Xrotation Yrotation Zrotation
											JOINT LeftHandThumb2
											{
												OFFSET 4.138618 -2.389435 2.389433
												CHANNELS 3 Xrotation Yrotation Zrotation
												JOINT LeftHandThumb3
												{
													OFFSET 2.726913 -1.574387 1.574386
													CHANNELS 3 Xrotation Yrotation Zrotation
													JOINT LeftHandThumb4
													{
														OFFSET 3.941010 -2.275345 2.275342
														CHANNELS 3 Xrotation Yrotation Zrotation
														End Site
														{
															OFFSET 0.000000 0.000000 0.000000
														}
													}
												}
											}
										}
										JOINT LeftHandIndex1
										{
											OFFSET 24.424698 -1.985611 5.953459
											CHANNELS 3 Xrotation Yrotation Zrotation
											JOINT LeftHandIndex2
											{
												OFFSET 6.426697 0.000000 0.000000
												CHANNELS 3 Xrotation Yrotation Zrotation
												JOINT LeftHandIndex3
												{
													OFFSET 5.337898 0.000000 0.000000
													CHANNELS 3 Xrotation Yrotation Zrotation
													JOINT LeftHandIndex4
													{
														OFFSET 4.409401 0.000000 0.000000
														CHANNELS 3 Xrotation Yrotation Zrotation
														End Site
														{
															OFFSET 0.000000 0.000000 0.000000
														}
													}
												}
											}
										}
										JOINT LeftHandMiddle1
										{
											OFFSET 23.810104 0.000000 0.000000
											CHANNELS 3 Xrotation Yrotation Zrotation
											JOINT LeftHandMiddle2
											{
												OFFSET 7.176498 0.000000 0.000000
												CHANNELS 3 Xrotation Yrotation Zrotation
												JOINT LeftHandMiddle3
												{
													OFFSET 6.774902 0.000000 0.000000
													CHANNELS 3 Xrotation Yrotation Zrotation
													JOINT LeftHandMiddle4
													{
														OFFSET 5.403328 0.000000 0.000000
														CHANNELS 3 Xrotation Yrotation Zrotation
														End Site
														{
															OFFSET 0.000000 0.000000 0.000000
														}
													}
												}
											}
										}
										JOINT LeftHandRing1
										{
											OFFSET 22.908401 -0.839279 -6.020567
											CHANNELS 3 Xrotation Yrotation Zrotation
											JOINT LeftHandRing2
											{
												OFFSET 6.337502 0.000000 0.000000
												CHANNELS 3 Xrotation Yrotation Zrotation
												JOINT LeftHandRing3
												{
													OFFSET 5.779297 0.000000 0.000000
													CHANNELS 3 Xrotation Yrotation Zrotation
													JOINT LeftHandRing4
													{
														OFFSET 4.965698 0.000000 0.000000
														CHANNELS 3 Xrotation Yrotation Zrotation
														End Site
														{
															OFFSET 0.000000 0.000000 0.000000
														}
													}
												}
											}
										}
										JOINT LeftHandPinky1
										{
											OFFSET 20.037003 -1.530319 -10.950146
											CHANNELS 3 Xrotation Yrotation Zrotation
											JOINT LeftHandPinky2
											{
												OFFSET 5.254700 0.000000 0.000000
												CHANNELS 3 Xrotation Yrotation Zrotation
												JOINT LeftHandPinky3
												{
													OFFSET 4.810204 0.000000 0.000000
													CHANNELS 3 Xrotation Yrotation Zrotation
													JOINT LeftHandPinky4
													{
														OFFSET 3.647202 0.000000 0.000000
														CHANNELS 3 Xrotation Yrotation Zrotation
														End Site
														{
															OFFSET 0.000000 0.000000 0.000000
														}
													}
												}
											}
										}
									}
								}
							}
						}
					}
					JOINT RightShoulder
					{
						OFFSET -7.570500 7.247704 -3.868750
						CHANNELS 3 Xrotation Yrotation Zrotation
						JOINT RightShoulder_split
						{
							OFFSET -7.570500 7.247704 -3.868750
							CHANNELS 3 Xrotation Yrotation Zrotation
							JOINT RightArm
							{
								OFFSET -9.308998 -2.777710 0.208500
								CHANNELS 3 Xrotation Yrotation Zrotation
								JOINT RightForeArm
								{
									OFFSET -29.972300 0.000000 0.000000
									CHANNELS 3 Xrotation Yrotation Zrotation
									JOINT RightHand
									{
										OFFSET -26.026505 0.000000 0.000000
										CHANNELS 3 Xrotation Yrotation Zrotation
										JOINT RightHandThumb1
										{
											OFFSET -12.240601 -7.148026 9.207092
											CHANNELS 3 Xrotation Yrotation Zrotation
											JOINT RightHandThumb2
											{
												OFFSET -4.138618 -2.389435 2.389433
												CHANNELS 3 Xrotation Yrotation Zrotation
												JOINT RightHandThumb3
												{
													OFFSET -2.726974 -1.574417 1.574421
													CHANNELS 3 Xrotation Yrotation Zrotation
													JOINT RightHandThumb4
													{
														OFFSET -3.941010 -2.275345 2.275343
														CHANNELS 3 Xrotation Yrotation Zrotation
														End Site
														{
															OFFSET 0.000000 0.000000 0.000000
														}
													}
												}
											}
										}
										JOINT RightHandIndex1
										{
											OFFSET -24.424698 -1.985657 5.953444
											CHANNELS 3 Xrotation Yrotation Zrotation
											JOINT RightHandIndex2
											{
												OFFSET -6.426697 0.000000 0.000000
												CHANNELS 3 Xrotation Yrotation Zrotation
												JOINT RightHandIndex3
												{
													OFFSET -5.337898 0.000000 0.000000
													CHANNELS 3 Xrotation Yrotation Zrotation
													JOINT RightHandIndex4
													{
														OFFSET -4.409401 0.000000 0.000000
														CHANNELS 3 Xrotation Yrotation Zrotation
														End Site
														{
															OFFSET 0.000000 0.000000 0.000000
														}
													}
												}
											}
										}
										JOINT RightHandMiddle1
										{
											OFFSET -23.810097 0.000000 0.000000
											CHANNELS 3 Xrotation Yrotation Zrotation
											JOINT RightHandMiddle2
											{
												OFFSET -7.176498 0.000000 0.000000
												CHANNELS 3 Xrotation Yrotation Zrotation
												JOINT RightHandMiddle3
												{
													OFFSET -6.774902 0.000000 0.000000
													CHANNELS 3 Xrotation Yrotation Zrotation
													JOINT RightHandMiddle4
													{
														OFFSET -5.403328 0.000000 0.000000
														CHANNELS 3 Xrotation Yrotation Zrotation
														End Site
														{
															OFFSET 0.000000 0.000000 0.000000
														}
													}
												}
											}
										}
										JOINT RightHandRing1
										{
											OFFSET -22.908302 -0.839325 -6.020576
											CHANNELS 3 Xrotation Yrotation Zrotation
											JOINT RightHandRing2
											{
												OFFSET -6.337502 0.000000 0.000000
												CHANNELS 3 Xrotation Yrotation Zrotation
												JOINT RightHandRing3
												{
													OFFSET -5.779297 0.000000 0.000000
													CHANNELS 3 Xrotation Yrotation Zrotation
													JOINT RightHandRing4
													{
														OFFSET -4.965698 0.000000 0.000000
														CHANNELS 3 Xrotation Yrotation Zrotation
														End Site
														{
															OFFSET 0.000000 0.000000 0.000000
														}
													}
												}
											}
										}
										JOINT RightHandPinky1
										{
											OFFSET -20.037003 -1.530334 -10.950259
											CHANNELS 3 Xrotation Yrotation Zrotation
											JOINT RightHandPinky2
											{
												OFFSET -5.254700 0.000000 0.000000
												CHANNELS 3 Xrotation Yrotation Zrotation
												JOINT RightHandPinky3
												{
													OFFSET -4.810204 0.000000 0.000000
													CHANNELS 3 Xrotation Yrotation Zrotation
													JOINT RightHandPinky4
													{
														OFFSET -3.647202 0.000000 0.000000
														CHANNELS 3 Xrotation Yrotation Zrotation
														End Site
														{
															OFFSET 0.000000 0.000000 0.000000
														}
													}
												}
											}
										}
									}
								}
							}
						}
					}
				}
			}
		}
	}
	JOINT LeftUpLeg
	{
		OFFSET 15.427100 -6.655098 0.678600
		CHANNELS 3 Xrotation Yrotation Zrotation
		JOINT LeftLeg
		{
			OFFSET 4.081073 -39.591068 13.024000
			CHANNELS 3 Xrotation Yrotation Zrotation
			JOINT LeftFoot
			{
				OFFSET -4.081074 -37.707932 -15.979700
				CHANNELS 3 Xrotation Yrotation Zrotation
				JOINT LeftToeBase
				{
					OFFSET 5.346399 -15.068900 20.645000
					CHANNELS 3 Xrotation Yrotation Zrotation
					JOINT LeftToe_End
					{
						OFFSET 2.754700 0.931300 11.300900
						CHANNELS 3 Xrotation Yrotation Zrotation
						End Site
						{
							OFFSET 0.000000 0.000000 0.000000
						}
					}
				}
			}
		}
	}
	JOINT RightUpLeg
	{
		OFFSET -15.569500 -6.655098 0.678600
		CHANNELS 3 Xrotation Yrotation Zrotation
		JOINT RightLeg
		{
			OFFSET -4.081825 -39.591045 13.023800
			CHANNELS 3 Xrotation Yrotation Zrotation
			JOINT RightFoot
			{
				OFFSET 4.081824 -37.707954 -15.979600
				CHANNELS 3 Xrotation Yrotation Zrotation
				JOINT RightToeBase
				{
					OFFSET -5.346400 -15.068900 20.645000
					CHANNELS 3 Xrotation Yrotation Zrotation
					JOINT RightToe_End
					{
						OFFSET -2.754700 0.931300 11.300900
						CHANNELS 3 Xrotation Yrotation Zrotation
						End Site
						{
							OFFSET 0.000000 0.000000 0.000000
						}
					}
				}
			}
		}
	}
}
MOTION
Frames: 4
Frame Time: 0.016667
-6.559620 88.426338 -1.416498 2.468436 27.739077 1.030253 3.932282 4.878989 -2.033614 0.662378 3.033930 0.848257 0.000000 0.000000 0.000000 0.672735 3.142731 0.838938 -2.710829 10.151288 -6.043546 -8.274088 5.419484 8.279211 0.000000 0.000000 0.000000 -0.170427 1.694763 -1.674851 0.000000 0.000000 0.000000 -70.359165 1.043901 -26.985316 2.443034 -70.793278 3.754324 -29.776165 28.488663 8.482188 17.563616 -5.694010 -12.929225 10.852336 26.148382 8.654090 20.924894 51.116422 0.219806 -0.000002 -0.000000 0.000000 13.978246 1.203594 -55.006037 0.372692 1.163877 -65.441880 1.986568 2.154426 -57.665122 0.000000 0.000001 0.000001 7.502548 1.175421 -63.755267 1.809503 1.478259 -64.569856 0.130996 -0.903799 -43.270789 0.000000 -0.000003 -0.000000 8.574326 2.179116 -75.149006 -0.208029 1.014712 -57.856804 0.433177 1.760594 -53.580891 0.000001 -0.000001 -0.000000 10.030070 13.637033 -84.750251 0.878842 0.065138 -64.595503 1.137601 1.262743 -55.016194 0.000001 -0.000000 0.000001 4.020288 15.450590 6.652469 0.000000 0.000000 0.000000 13.125175 -8.190047 63.320799 15.659588 40.753522 -6.335582 0.612804 5.014351 4.113599 15.788505 -2.734469 -17.205892 -2.198309 -31.113540 7.361213 -6.563756 -4.145951 2.404842 0.000002 0.000001 -0.000000 2.074283 -2.892245 8.063598 -2.121939 -2.465271 18.435476 -1.984028 -4.777950 13.954151 0.000001 -0.000000 0.000003 -2.068504 -5.551589 13.796151 0.296901 -5.078002 27.073145 -0.651327 -1.203600 16.209509 -0.000001 0.000001 -0.000001 -2.790450 -9.236762 13.386730 4.022952 -4.011803 34.251756 2.110247 -3.137648 16.576951 0.000000 -0.000001 0.000003 -5.652136 -13.452093 23.029987 10.777260 -2.332145 36.218444 6.441682 -3.004328 16.514228 -0.000000 0.000001 -0.000002 -32.453596 -23.565751 3.051423 27.090444 14.541341 -7.914278 4.460760 -2.554371 -7.960786 -2.984899 -1.725347 -0.462253 0.000000 0.000001 -0.000000 4.844878 -26.848953 -6.559956 25.904394 -6.736315 8.316097 -30.199828 -12.736137 1.565681 -1.306434 -0.028480 0.200604 -0.000000 -0.000001 0.000000 
-6.552255 88.474709 -1.514311 2.697275 26.356795 0.862468 3.999055 4.786735 -2.057850 0.707250 2.981743 0.854121 0.000000 0.000000 0.000000 0.717241 3.091653 0.846011 -3.079327 8.772040 -5.694022 -7.482104 4.208282 8.375152 -0.000000 0.000001 0.000000 -0.162804 1.312167 -1.801277 0.000000 0.000000 0.000000 -70.388917 1.155128 -27.050795 2.651003 -71.946453 3.781619 -30.374947 28.694632 9.100162 17.563616 -5.694012 -12.929221 10.852340 26.148380 8.654092 20.924887 51.116425 0.219806 0.000001 0.000001 -0.000001 13.978249 1.203594 -55.006047 0.372688 1.163878 -65.441873 1.986564 2.154426 -57.665122 -0.000002 0.000001 -0.000000 7.502549 1.175424 -63.755274 1.809505 1.478257 -64.569849 0.130999 -0.903801 -43.270782 0.000000 0.000001 0.000000 8.574326 2.179116 -75.149006 -0.208029 1.014712 -57.856804 0.433175 1.760593 -53.580891 0.000001 0.000002 -0.000001 10.030072 13.637034 -84.750251 0.878842 0.065138 -64.595503 1.137601 1.262743 -55.016200 -0.000003 -0.000001 0.000002 4.048797 15.426139 6.521218 0.000000 0.000000 0.000000 12.805610 -8.144382 63.265747 15.745710 41.230850 -6.421029 0.382668 5.166909 4.027967 15.788505 -2.734470 -17.205892 -2.198309 -31.113540 7.361213 -6.563760 -4.145951 2.404849 0.000001 -0.000003 -0.000004 2.074625 -2.893182 8.030025 -2.121182 -2.465806 18.407484 -1.983123 -4.778662 13.925543 -0.000001 0.000000 -0.000003 -2.069251 -5.550823 13.763149 0.297735 -5.078520 27.045824 -0.651197 -1.204353 16.182055 0.000001 0.000002 -0.000000 -2.792287 -9.234409 13.352262 4.022588 -4.012744 34.223213 2.110704 -3.136723 16.548688 -0.000000 0.000001 -0.000003 -5.659324 -13.435641 23.012579 10.777857 -2.332968 36.195443 6.442567 -3.003493 16.495108 -0.000000 0.000000 -0.000004 -32.181942 -22.902736 3.807561 27.310781 14.759938 -7.941960 4.148473 -2.297688 -8.126251 -3.033225 -1.803885 -0.483750 0.000000 -0.000003 0.000000 4.067277 -25.848684 -6.680936 26.098388 -6.536937 8.133212 -29.975860 -12.549915 1.530630 -1.303124 -0.028232 0.191544 0.000000 0.000002 0.000000 
-6.537295 88.518440 -1.621224 2.954301 24.939790 0.695258 4.061742 4.708135 -2.064579 0.745717 2.934843 0.846918 0.000000 0.000000 0.000000 0.756888 3.044786 0.839889 -3.457282 7.577846 -5.438824 -6.770386 3.128969 8.503116 0.000000 0.000001 -0.000000 -0.084036 0.806784 -1.884201 0.000000 0.000000 0.000000 -70.540315 1.291857 -27.179155 2.895059 -73.071051 3.786742 -31.235637 28.851409 9.761314 17.563616 -5.694012 -12.929224 10.852339 26.148382 8.654088 20.924887 51.116425 0.219805 0.000002 -0.000001 0.000000 13.978248 1.203593 -55.006041 0.372685 1.163877 -65.441873 1.986568 2.154428 -57.665122 -0.000002 0.000002 -0.000000 7.502550 1.175422 -63.755267 1.809505 1.478258 -64.569856 0.130997 -0.903799 -43.270785 -0.000000 0.000002 -0.000000 8.574327 2.179115 -75.149006 -0.208030 1.014711 -57.856804 0.433174 1.760593 -53.580887 -0.000000 -0.000002 0.000000 10.030070 13.637034 -84.750251 0.878842 0.065139 -64.595503 1.137599 1.262741 -55.016200 0.000001 0.000000 -0.000004 4.018017 15.343501 6.386901 0.000000 0.000000 0.000000 12.582817 -8.065738 63.241855 15.851392 41.731974 -6.506773 0.197829 5.306151 3.964787 15.788506 -2.734468 -17.205887 -2.198313 -31.113547 7.361212 -6.563760 -4.145951 2.404844 0.000000 0.000000 -0.000001 2.074927 -2.893508 7.958544 -2.120547 -2.465798 18.342292 -1.983462 -4.778958 13.859372 -0.000000 -0.000001 -0.000002 -2.070269 -5.549530 13.692529 0.297850 -5.078834 26.981085 -0.651068 -1.204530 16.117267 -0.000000 0.000000 -0.000003 -2.794179 -9.231171 13.280195 4.022279 -4.012923 34.157260 2.111037 -3.135786 16.483195 0.000002 -0.000000 -0.000001 -5.666651 -13.418882 22.958436 10.777983 -2.333369 36.135744 6.442921 -3.002339 16.439154 -0.000001 -0.000000 0.000000 -31.945751 -22.261987 4.565770 27.548919 15.013114 -7.989061 3.828080 -2.008941 -8.312000 -3.078442 -1.876286 -0.501848 -0.000000 0.000001 -0.000000 3.253441 -24.784684 -6.838379 26.294811 -6.338889 8.032167 -29.734252 -12.346235 1.492122 -1.298626 -0.028006 0.181754 0.000000 0.000002 0.000000 
-6.517343 88.557190 -1.736696 3.240976 23.484992 0.529317 4.112072 4.591817 -2.107533 0.790328 2.868909 0.853544 0.000000 0.000000 0.000000 0.800377 2.980542 0.848365 -3.958434 6.548229 -5.148043 -6.079051 2.232489 8.598648 -0.000000 0.000002 0.000000 -0.018819 0.448286 -1.891516 0.000000 0.000000 0.000000 -70.716555 1.401115 -27.633595 3.155396 -74.131055 3.832564 -32.165075 28.983375 10.355858 17.563616 -5.694011 -12.929224 10.852336 26.148380 8.654087 20.924886 51.116425 0.219804 0.000001 -0.000002 0.000002 13.978245 1.203594 -55.006041 0.372690 1.163877 -65.441880 1.986569 2.154426 -57.665122 -0.000002 -0.000001 0.000001 7.502548 1.175424 -63.755274 1.809505 1.478258 -64.569849 0.130996 -0.903798 -43.270782 -0.000000 -0.000002 0.000000 8.574325 2.179116 -75.149006 -0.208033 1.014711 -57.856804 0.433175 1.760592 -53.580894 0.000000 -0.000002 0.000001 10.030070 13.637032 -84.750244 0.878844 0.065138 -64.595496 1.137599 1.262743 -55.016197 -0.000001 0.000003 -0.000003 4.046390 15.322758 6.229107 0.000000 0.000000 0.000000 12.299354 -7.930878 63.218100 15.936184 42.171654 -6.586650 0.097022 5.468618 3.943407 15.788506 -2.734467 -17.205889 -2.198312 -31.113544 7.361206 -6.563759 -4.145950 2.404846 -0.000002 -0.000003 -0.000003 2.075171 -2.893279 7.852204 -2.120030 -2.465275 18.240812 -1.984627 -4.778900 13.758789 -0.000000 -0.000001 -0.000002 -2.071540 -5.547790 13.586794 0.297056 -5.079017 26.880708 -0.650942 -1.204176 16.017880 0.000002 -0.000001 0.000001 -2.798425 -9.227085 13.172289 4.022004 -4.012401 34.056027 2.111225 -3.134941 16.382149 0.000001 0.000000 0.000002 -5.674520 -13.400902 22.869601 10.777688 -2.333345 36.041266 6.442832 -3.000981 16.348355 -0.000000 0.000000 -0.000002 -31.749837 -21.669817 5.326626 27.798438 15.292097 -8.061800 3.519834 -1.697909 -8.497811 -3.123990 -1.938772 -0.511913 -0.000000 -0.000000 -0.000000 2.385385 -23.728562 -7.007612 26.526841 -6.159304 7.936622 -29.485933 -12.154598 1.443715 -1.294249 -0.027908 0.178328 0.000000 0.000001 0.000000 
